<?xml version="1.0" encoding="UTF-8" standalone="no"?>
<!DOCTYPE svg PUBLIC "-//W3C//DTD SVG 1.1//EN"
 "http://www.w3.org/Graphics/SVG/1.1/DTD/svg11.dtd">
<!-- Generated by graphviz version 2.43.0 (0)
 -->
<!-- Title: er Pages: 1 -->
<svg width="968pt" height="469pt"
 viewBox="0.00 0.00 968.00 468.50" xmlns="http://www.w3.org/2000/svg" xmlns:xlink="http://www.w3.org/1999/xlink">
<g id="graph0" class="graph" transform="scale(1 1) rotate(0) translate(18 450.5)">
<title>er</title>
<polygon fill="white" stroke="transparent" points="-18,18 -18,-450.5 950,-450.5 950,18 -18,18"/>
<!-- tariff -->
<g id="node1" class="node">
<title>tariff</title>
<polygon fill="#11365f" stroke="transparent" points="498,-403.5 498,-428.5 924,-428.5 924,-403.5 498,-403.5"/>
<polygon fill="none" stroke="black" points="498,-403.5 498,-428.5 924,-428.5 924,-403.5 498,-403.5"/>
<text text-anchor="start" x="566.5" y="-413.3" font-family="Helvetica,sans-Serif" font-weight="bold" font-size="14.00" fill="white">tariff</text>
<text text-anchor="start" x="606.5" y="-413.3" font-family="Helvetica,sans-Serif" font-size="14.00" fill="white">  — immutable · versioned · hashed</text>
<polygon fill="none" stroke="black" points="498,-378.5 498,-403.5 924,-403.5 924,-378.5 498,-378.5"/>
<text text-anchor="start" x="503" y="-388.3" font-family="Helvetica,sans-Serif" font-size="14.00">id   BIGINT   </text>
<text text-anchor="start" x="591" y="-388.3" font-family="Helvetica,sans-Serif" font-weight="bold" font-size="14.00">PK</text>
<polygon fill="none" stroke="black" points="498,-353.5 498,-378.5 924,-378.5 924,-353.5 498,-353.5"/>
<text text-anchor="start" x="503" y="-362.3" font-family="Helvetica,sans-Serif" font-size="14.00">tariff_code   TEXT</text>
<polygon fill="none" stroke="black" points="498,-328.5 498,-353.5 924,-353.5 924,-328.5 498,-328.5"/>
<text text-anchor="start" x="503" y="-337.3" font-family="Helvetica,sans-Serif" font-size="14.00">tariff_system   ENUM (TARDOC/EAL/SL/MiGeL/…)</text>
<polygon fill="none" stroke="black" points="498,-303.5 498,-328.5 924,-328.5 924,-303.5 498,-303.5"/>
<text text-anchor="start" x="503" y="-312.3" font-family="Helvetica,sans-Serif" font-size="14.00">designation_de / _fr / _it   TEXT</text>
<polygon fill="none" stroke="black" points="498,-278.5 498,-303.5 924,-303.5 924,-278.5 498,-278.5"/>
<text text-anchor="start" x="503" y="-287.3" font-family="Helvetica,sans-Serif" font-size="14.00">category   TEXT</text>
<polygon fill="none" stroke="black" points="498,-253.5 498,-278.5 924,-278.5 924,-253.5 498,-253.5"/>
<text text-anchor="start" x="503" y="-262.3" font-family="Helvetica,sans-Serif" font-size="14.00">tax_points   NUMERIC(12,4) · price_chf NUMERIC(12,2)</text>
<polygon fill="none" stroke="black" points="498,-228.5 498,-253.5 924,-253.5 924,-228.5 498,-228.5"/>
<text text-anchor="start" x="503" y="-237.3" font-family="Helvetica,sans-Serif" font-size="14.00">unit · valid_from · valid_to</text>
<polygon fill="none" stroke="black" points="498,-203.5 498,-228.5 924,-228.5 924,-203.5 498,-203.5"/>
<text text-anchor="start" x="503" y="-212.3" font-family="Helvetica,sans-Serif" font-size="14.00">source_url · source_version</text>
<polygon fill="none" stroke="black" points="498,-178.5 498,-203.5 924,-203.5 924,-178.5 498,-178.5"/>
<text text-anchor="start" x="503" y="-187.3" font-family="Helvetica,sans-Serif" font-size="14.00">harmonization_confidence   REAL (0–1)</text>
<polygon fill="none" stroke="black" points="498,-153.5 498,-178.5 924,-178.5 924,-153.5 498,-153.5"/>
<text text-anchor="start" x="503" y="-162.3" font-family="Helvetica,sans-Serif" font-size="14.00">requires_review   BOOL</text>
<polygon fill="none" stroke="black" points="498,-128.5 498,-153.5 924,-153.5 924,-128.5 498,-128.5"/>
<text text-anchor="start" x="503" y="-137.3" font-family="Helvetica,sans-Serif" font-size="14.00">metadata   JSONB</text>
<polygon fill="none" stroke="black" points="498,-103.5 498,-128.5 924,-128.5 924,-103.5 498,-103.5"/>
<text text-anchor="start" x="503" y="-113.3" font-family="Helvetica,sans-Serif" font-size="14.00">embedding   vector(1024)  </text>
<text text-anchor="start" x="695" y="-113.3" font-family="Helvetica,sans-Serif" font-size="14.00" fill="#0f766e">(multilingual&#45;e5)</text>
<polygon fill="none" stroke="black" points="498,-78.5 498,-103.5 924,-103.5 924,-78.5 498,-78.5"/>
<text text-anchor="start" x="503" y="-88.3" font-family="Helvetica,sans-Serif" font-weight="bold" font-size="14.00">record_hash</text>
<text text-anchor="start" x="599" y="-88.3" font-family="Helvetica,sans-Serif" font-size="14.00">   TEXT   UNIQUE  </text>
<text text-anchor="start" x="726" y="-88.3" font-family="Helvetica,sans-Serif" font-size="14.00" fill="#b45309">← SHA&#45;256 integrity anchor</text>
<polygon fill="none" stroke="black" points="498,-53.5 498,-78.5 924,-78.5 924,-53.5 498,-53.5"/>
<text text-anchor="start" x="503" y="-62.3" font-family="Helvetica,sans-Serif" font-size="14.00">version   INT   ·   created_at TIMESTAMPTZ</text>
<polygon fill="none" stroke="black" points="498,-28.5 498,-53.5 924,-53.5 924,-28.5 498,-28.5"/>
<text text-anchor="start" x="503" y="-37.3" font-family="Helvetica,sans-Serif" font-size="14.00" fill="#475569">UNIQUE (tariff_system, tariff_code, version)</text>
</g>
<!-- audit -->
<g id="node2" class="node">
<title>audit</title>
<polygon fill="#11365f" stroke="transparent" points="8.5,-203.5 8.5,-228.5 297.5,-228.5 297.5,-203.5 8.5,-203.5"/>
<polygon fill="none" stroke="black" points="8.5,-203.5 8.5,-228.5 297.5,-228.5 297.5,-203.5 8.5,-203.5"/>
<text text-anchor="start" x="32" y="-213.3" font-family="Helvetica,sans-Serif" font-weight="bold" font-size="14.00" fill="white">audit_log</text>
<text text-anchor="start" x="104" y="-213.3" font-family="Helvetica,sans-Serif" font-size="14.00" fill="white">  — append&#45;only lineage</text>
<polygon fill="none" stroke="black" points="8.5,-178.5 8.5,-203.5 297.5,-203.5 297.5,-178.5 8.5,-178.5"/>
<text text-anchor="start" x="13.5" y="-188.3" font-family="Helvetica,sans-Serif" font-size="14.00">id   BIGINT   </text>
<text text-anchor="start" x="101.5" y="-188.3" font-family="Helvetica,sans-Serif" font-weight="bold" font-size="14.00">PK</text>
<polygon fill="none" stroke="black" points="8.5,-153.5 8.5,-178.5 297.5,-178.5 297.5,-153.5 8.5,-153.5"/>
<text text-anchor="start" x="13.5" y="-162.3" font-family="Helvetica,sans-Serif" font-size="14.00">event_time   TIMESTAMPTZ</text>
<polygon fill="none" stroke="black" points="8.5,-128.5 8.5,-153.5 297.5,-153.5 297.5,-128.5 8.5,-128.5"/>
<text text-anchor="start" x="13.5" y="-137.3" font-family="Helvetica,sans-Serif" font-size="14.00">event_type   TEXT (freeze / skipped / …)</text>
<polygon fill="none" stroke="black" points="8.5,-103.5 8.5,-128.5 297.5,-128.5 297.5,-103.5 8.5,-103.5"/>
<text text-anchor="start" x="13.5" y="-112.3" font-family="Helvetica,sans-Serif" font-size="14.00">tariff_system · tariff_code</text>
<polygon fill="none" stroke="black" points="8.5,-78.5 8.5,-103.5 297.5,-103.5 297.5,-78.5 8.5,-78.5"/>
<text text-anchor="start" x="13.5" y="-87.3" font-family="Helvetica,sans-Serif" font-size="14.00">record_hash   TEXT</text>
<polygon fill="none" stroke="black" points="8.5,-53.5 8.5,-78.5 297.5,-78.5 297.5,-53.5 8.5,-53.5"/>
<text text-anchor="start" x="13.5" y="-62.3" font-family="Helvetica,sans-Serif" font-size="14.00">source_file · parser_version</text>
<polygon fill="none" stroke="black" points="8.5,-28.5 8.5,-53.5 297.5,-53.5 297.5,-28.5 8.5,-28.5"/>
<text text-anchor="start" x="13.5" y="-37.3" font-family="Helvetica,sans-Serif" font-size="14.00">confidence   REAL · validation_ok BOOL</text>
<polygon fill="none" stroke="black" points="8.5,-3.5 8.5,-28.5 297.5,-28.5 297.5,-3.5 8.5,-3.5"/>
<text text-anchor="start" x="13.5" y="-12.3" font-family="Helvetica,sans-Serif" font-size="14.00">detail   JSONB</text>
</g>
<!-- audit&#45;&gt;tariff -->
<g id="edge1" class="edge">
<title>audit:hash&#45;&gt;tariff:hash</title>
<path fill="none" stroke="#64748b" stroke-dasharray="5,2" d="M298.5,-90.5C383.28,-90.5 406.95,-90.5 486.96,-90.5"/>
<polygon fill="#64748b" stroke="#64748b" points="487,-94 497,-90.5 487,-87 487,-94"/>
<text text-anchor="middle" x="397.5" y="-92.7" font-family="Helvetica,sans-Serif" font-size="8.50" fill="#475569">lineage by record_hash</text>
</g>
</g>
</svg>
