<svg xmlns="http://www.w3.org/2000/svg" viewBox="0 0 1240 668" font-family="Helvetica, Arial, sans-serif">
<rect x="0" y="0" width="1240" height="668" fill="white"/>
<text x="70" y="40" font-size="20" font-weight="bold" fill="#11365f">Runtime view — harmonisation &amp; freeze (behaviour)</text>
<text x="70" y="62" font-size="12" fill="#64748b">The single AI seam is pre-freeze and never touches a billing value; frozen records are then served deterministically.</text>
<defs><marker id="ah" markerWidth="9" markerHeight="9" refX="7" refY="3" orient="auto"><path d="M0,0 L7,3 L0,6 Z" fill="#475569"/></marker></defs>
<rect x="4.0" y="96" width="132" height="40" rx="6" fill="#475569"/>
<text x="70.0" y="113" font-size="10.5" font-weight="bold" fill="white" text-anchor="middle">Public</text>
<text x="70.0" y="128" font-size="10.5" font-weight="bold" fill="white" text-anchor="middle">source</text>
<line x1="70.0" y1="136" x2="70.0" y2="608" stroke="#cbd5e1" stroke-width="1.4"/>
<rect x="226.0" y="96" width="132" height="40" rx="6" fill="#11365f"/>
<text x="292.0" y="113" font-size="10.5" font-weight="bold" fill="white" text-anchor="middle">Ingestion</text>
<text x="292.0" y="128" font-size="10.5" font-weight="bold" fill="white" text-anchor="middle">pipeline</text>
<line x1="292.0" y1="136" x2="292.0" y2="608" stroke="#cbd5e1" stroke-width="1.4"/>
<rect x="448.0" y="96" width="132" height="40" rx="6" fill="#475569"/>
<text x="514.0" y="113" font-size="10.5" font-weight="bold" fill="white" text-anchor="middle">Claude</text>
<text x="514.0" y="128" font-size="10.5" font-weight="bold" fill="white" text-anchor="middle">(pre-freeze)</text>
<line x1="514.0" y1="136" x2="514.0" y2="608" stroke="#cbd5e1" stroke-width="1.4"/>
<rect x="670.0" y="96" width="132" height="40" rx="6" fill="#475569"/>
<text x="736.0" y="113" font-size="10.5" font-weight="bold" fill="white" text-anchor="middle">Human</text>
<text x="736.0" y="128" font-size="10.5" font-weight="bold" fill="white" text-anchor="middle">reviewer</text>
<line x1="736.0" y1="136" x2="736.0" y2="608" stroke="#cbd5e1" stroke-width="1.4"/>
<rect x="892.0" y="96" width="132" height="40" rx="6" fill="#11365f"/>
<text x="958.0" y="113" font-size="10.5" font-weight="bold" fill="white" text-anchor="middle">Freeze + Postgres</text>
<text x="958.0" y="128" font-size="10.5" font-weight="bold" fill="white" text-anchor="middle">(frozen store)</text>
<line x1="958.0" y1="136" x2="958.0" y2="608" stroke="#cbd5e1" stroke-width="1.4"/>
<rect x="1114.0" y="96" width="132" height="40" rx="6" fill="#475569"/>
<text x="1180.0" y="113" font-size="10.5" font-weight="bold" fill="white" text-anchor="middle">Audit log</text>
<line x1="1180.0" y1="136" x2="1180.0" y2="608" stroke="#cbd5e1" stroke-width="1.4"/>
<line x1="847.0" y1="142" x2="847.0" y2="608" stroke="#0f766e" stroke-width="2" stroke-dasharray="7,5"/>
<text x="841.0" y="602" font-size="11" font-weight="bold" fill="#0f766e" text-anchor="end">◀ AI allowed (pre-freeze)</text>
<text x="853.0" y="602" font-size="11" font-weight="bold" fill="#0f766e">deterministic, no AI ▶</text>
<line x1="70.0" y1="150" x2="292.0" y2="150" stroke="#475569" stroke-width="1.5" marker-end="url(#ah)"/>
<text x="181.0" y="144" font-size="10" fill="#1f2733" text-anchor="middle">raw file (XLSX / FHIR R5)</text>
<line x1="292.0" y1="196" x2="514.0" y2="196" stroke="#b45309" stroke-width="1.5" stroke-dasharray="6,4" marker-end="url(#ah)"/>
<text x="403.0" y="190" font-size="10" fill="#1f2733" text-anchor="middle">propose mapping — non-billing fields only</text>
<line x1="514.0" y1="242" x2="292.0" y2="242" stroke="#b45309" stroke-width="1.5" stroke-dasharray="6,4" marker-end="url(#ah)"/>
<text x="403.0" y="236" font-size="10" fill="#1f2733" text-anchor="middle">designation / category (temp=0, structured)</text>
<path d="M292.0,288 h70 v20 h-70" fill="none" stroke="#475569" stroke-width="1.5" marker-end="url(#ah)"/>
<text x="370.0" y="290" font-size="10" fill="#1f2733">rules own tax_points / price_chf · validate · score</text>
<line x1="292.0" y1="342" x2="736.0" y2="342" stroke="#475569" stroke-width="1.5" marker-end="url(#ah)"/>
<text x="514.0" y="336" font-size="10" fill="#1f2733" text-anchor="middle">if confidence &lt; 0.85 → review task</text>
<line x1="736.0" y1="388" x2="292.0" y2="388" stroke="#475569" stroke-width="1.5" marker-end="url(#ah)"/>
<text x="514.0" y="382" font-size="10" fill="#1f2733" text-anchor="middle">approve / correct</text>
<line x1="292.0" y1="434" x2="958.0" y2="434" stroke="#475569" stroke-width="1.5" marker-end="url(#ah)"/>
<text x="625.0" y="428" font-size="10" fill="#1f2733" text-anchor="middle">freeze(): SHA-256 over sorted content</text>
<line x1="958.0" y1="480" x2="1180.0" y2="480" stroke="#475569" stroke-width="1.5" marker-end="url(#ah)"/>
<text x="1069.0" y="474" font-size="10" fill="#1f2733" text-anchor="middle">append lineage (source, parser, conf, reviewer)</text>
<rect x="60" y="552" width="1260" height="56" rx="8" fill="#e9f7f1" stroke="#86c8ad"/>
<text x="76" y="574" font-size="12" font-weight="bold" fill="#11365f">Serving path (separate, deterministic):</text>
<text x="76" y="594" font-size="11" fill="#1f2733">Vendor / agent → TarifCore (or TarifMCP) → reads frozen record from Postgres → returns it verbatim. No LLM import on this path — enforced by an AST boundary test in CI.</text>
</svg>