<svg xmlns="http://www.w3.org/2000/svg" xmlns:xlink="http://www.w3.org/1999/xlink" contentStyleType="text/css" data-diagram-type="STATE" height="1113px" preserveAspectRatio="none" style="width:903px;height:1113px;background:#FFFFFF;" version="1.1" viewBox="0 0 903 1113" width="903px" zoomAndPan="magnify"><?plantuml 1.2026.6?><defs/><g><g class="title" data-source-line="5"><text fill="#11365F" font-family="Helvetica" font-size="14" font-weight="700" lengthAdjust="spacing" textLength="125.1934" x="385.4258" y="22.9951">Record lifecycle</text></g><g class="entity" data-qualified-name="raw" data-source-line="8" id="ent0001"><rect fill="#F8FAFC" height="52.5938" rx="12.5" ry="12.5" style="stroke:#11365F;stroke-width:0.5;" width="217.4014" x="262.0572" y="140.2969"/><line style="stroke:#11365F;stroke-width:0.5;" x1="262.0572" x2="479.4586" y1="166.5937" y2="166.5937"/><text fill="#000000" font-family="Helvetica" font-size="14" lengthAdjust="spacing" textLength="25.7852" x="357.8653" y="158.292">raw</text><text fill="#000000" font-family="Helvetica" font-size="14" lengthAdjust="spacing" textLength="197.4014" x="267.0572" y="184.5889">source row (XLSX / FHIR R5)</text></g><g class="entity" data-qualified-name="parsed" data-source-line="9" id="ent0002"><rect fill="#F8FAFC" height="52.5938" rx="12.5" ry="12.5" style="stroke:#11365F;stroke-width:0.5;" width="90.3828" x="325.5672" y="269.8869"/><line style="stroke:#11365F;stroke-width:0.5;" x1="325.5672" x2="415.95" y1="296.1837" y2="296.1837"/><text fill="#000000" font-family="Helvetica" font-size="14" lengthAdjust="spacing" textLength="48.0156" x="346.7508" y="287.882">parsed</text><text fill="#000000" font-family="Helvetica" font-size="14" lengthAdjust="spacing" textLength="70.3828" x="330.5672" y="314.1789">typed row</text></g><g class="entity" data-qualified-name="mapped" data-source-line="10" id="ent0003"><rect fill="#F8FAFC" height="68.8906" rx="12.5" ry="12.5" style="stroke:#11365F;stroke-width:0.5;" width="257.9316" x="241.7872" y="399.4769"/><line style="stroke:#11365F;stroke-width:0.5;" x1="241.7872" x2="499.7188" y1="425.7737" y2="425.7737"/><text fill="#000000" font-family="Helvetica" font-size="14" lengthAdjust="spacing" textLength="57.4902" x="342.0079" y="417.472">mapped</text><text fill="#000000" font-family="Helvetica" font-size="14" lengthAdjust="spacing" textLength="199.7871" x="246.7872" y="443.7689">map_raw &#8212; all billing values</text><text fill="#000000" font-family="Helvetica" font-size="14" lengthAdjust="spacing" textLength="237.9316" x="246.7872" y="460.0657">+ optional ai_map fill (non-billing)</text></g><g class="entity" data-qualified-name="validated" data-source-line="11" id="ent0004"><rect fill="#F8FAFC" height="52.5938" rx="12.5" ry="12.5" style="stroke:#11365F;stroke-width:0.5;" width="155.2285" x="293.1472" y="545.3669"/><line style="stroke:#11365F;stroke-width:0.5;" x1="293.1472" x2="448.3757" y1="571.6637" y2="571.6637"/><text fill="#000000" font-family="Helvetica" font-size="14" lengthAdjust="spacing" textLength="65.0986" x="338.2121" y="563.362">validated</text><text fill="#000000" font-family="Helvetica" font-size="14" lengthAdjust="spacing" textLength="135.2285" x="298.1472" y="589.6589">ValidationResult ok</text></g><g class="entity" data-qualified-name="scored" data-source-line="12" id="ent0005"><rect fill="#F8FAFC" height="52.5938" rx="12.5" ry="12.5" style="stroke:#11365F;stroke-width:0.5;" width="224.2715" x="258.6172" y="674.9669"/><line style="stroke:#11365F;stroke-width:0.5;" x1="258.6172" x2="482.8887" y1="701.2637" y2="701.2637"/><text fill="#000000" font-family="Helvetica" font-size="14" lengthAdjust="spacing" textLength="46.8125" x="347.3467" y="692.962">scored</text><text fill="#000000" font-family="Helvetica" font-size="14" lengthAdjust="spacing" textLength="204.2715" x="263.6172" y="719.2589">deterministic confidence 0..1</text></g><g class="entity" data-qualified-name="in_review" data-source-line="13" id="ent0006"><rect fill="#FFF7ED" height="85.1875" rx="12.5" ry="12.5" style="stroke:#11365F;stroke-width:0.5;" width="279.2393" x="130.1372" y="995.4469"/><line style="stroke:#11365F;stroke-width:0.5;" x1="130.1372" x2="409.3764" y1="1021.7437" y2="1021.7437"/><text fill="#000000" font-family="Helvetica" font-size="14" lengthAdjust="spacing" textLength="66.3701" x="236.5718" y="1013.442">in_review</text><text fill="#000000" font-family="Helvetica" font-size="14" lengthAdjust="spacing" textLength="243.3389" x="135.1372" y="1039.7389">frozen with requires_review = true</text><text fill="#000000" font-family="Helvetica" font-size="14" lengthAdjust="spacing" textLength="259.2393" x="135.1372" y="1056.0357">awaiting expert decision (queue live,</text><text fill="#000000" font-family="Helvetica" font-size="14" lengthAdjust="spacing" textLength="176.6543" x="135.1372" y="1072.3326">review surface designed)</text></g><g class="entity" data-qualified-name="frozen" data-source-line="14" id="ent0007"><rect fill="#F8FAFC" height="68.8906" rx="12.5" ry="12.5" style="stroke:#11365F;stroke-width:0.5;" width="229.4189" x="256.0472" y="819.5569"/><line style="stroke:#11365F;stroke-width:0.5;" x1="256.0472" x2="485.4661" y1="845.8538" y2="845.8538"/><text fill="#000000" font-family="Helvetica" font-size="14" lengthAdjust="spacing" textLength="44.085" x="348.7142" y="837.552">frozen</text><text fill="#000000" font-family="Helvetica" font-size="14" lengthAdjust="spacing" textLength="167.2891" x="261.0472" y="863.8489">record_hash = SHA-256</text><text fill="#000000" font-family="Helvetica" font-size="14" lengthAdjust="spacing" textLength="209.4189" x="261.0472" y="880.1457">over sorted canonical content</text></g><g class="start_entity" data-qualified-name=".start." data-source-line="16" id="ent0008"><ellipse cx="370.7572" cy="53.2969" fill="#222222" rx="10" ry="10" style="stroke:#222222;stroke-width:1;"/></g><g class="end_entity" data-qualified-name=".end." data-source-line="24" id="ent0017"><ellipse cx="545.7572" cy="1038.0469" fill="none" rx="11" ry="11" style="stroke:#222222;stroke-width:1;"/><ellipse cx="545.7572" cy="1038.0469" fill="#222222" rx="6" ry="6" style="stroke:#222222;stroke-width:1;"/></g><g class="entity" data-qualified-name="GMN19" data-source-line="27" id="ent0020"><path d="M520.5972,826.3069 L520.5972,850.0069 L485.7772,854.0069 L520.5972,858.0069 L520.5972,881.7053 A0,0 0 0 0 520.5972,881.7053 L764.9077,881.7053 A0,0 0 0 0 764.9077,881.7053 L764.9077,836.3069 L754.9077,826.3069 L520.5972,826.3069 A0,0 0 0 0 520.5972,826.3069" fill="#FFFFFF" style="stroke:#B45309;stroke-width:0.5;"/><path d="M754.9077,826.3069 L754.9077,836.3069 L764.9077,836.3069 L754.9077,826.3069" fill="#FFFFFF" style="stroke:#B45309;stroke-width:0.5;"/><text fill="#475569" font-family="Helvetica" font-size="13" lengthAdjust="spacing" textLength="223.3105" x="526.5972" y="843.3738">immutable: SHA-256 record_hash;</text><text fill="#000000" font-family="Helvetica" font-size="13" lengthAdjust="spacing" textLength="197.4883" x="526.5972" y="858.5066">updates create a new version;</text><text fill="#000000" font-family="Helvetica" font-size="13" lengthAdjust="spacing" textLength="202.9409" x="526.5972" y="873.6394">audit_log append-only&lt;/color&gt;</text></g><!--link *start* to raw--><g class="link" data-entity-1="ent0008" data-entity-2="ent0001" data-link-type="dependency" data-source-line="16" id="lnk9"><path d="M370.7572,63.7869 C370.7572,80.4969 370.7572,110.7269 370.7572,135.0169" fill="none" id="*start*-to-raw" style="stroke:#475569;stroke-width:1;"/><polygon fill="#475569" points="370.7572,140.0169,374.7572,131.0169,370.7572,135.0169,366.7572,131.0169,370.7572,140.0169" style="stroke:#475569;stroke-width:1;stroke-linejoin:miter;stroke-miterlimit:10;"/><text fill="#475569" font-family="Helvetica" font-size="13" lengthAdjust="spacing" textLength="27.7837" x="371.7572" y="106.3638">load</text></g><!--link raw to parsed--><g class="link" data-entity-1="ent0001" data-entity-2="ent0002" data-link-type="dependency" data-source-line="17" id="lnk10"><path d="M370.7572,193.1069 C370.7572,215.3569 370.7572,242.4769 370.7572,264.7169" fill="none" id="raw-to-parsed" style="stroke:#475569;stroke-width:1;"/><polygon fill="#475569" points="370.7572,269.7169,374.7572,260.7169,370.7572,264.7169,366.7572,260.7169,370.7572,269.7169" style="stroke:#475569;stroke-width:1;stroke-linejoin:miter;stroke-miterlimit:10;"/><text fill="#475569" font-family="Helvetica" font-size="13" lengthAdjust="spacing" textLength="36.334" x="371.7572" y="235.9538">parse</text></g><!--link parsed to mapped--><g class="link" data-entity-1="ent0002" data-entity-2="ent0003" data-link-type="dependency" data-source-line="18" id="lnk11"><path d="M370.7572,322.7169 C370.7572,344.2969 370.7572,370.3869 370.7572,394.0469" fill="none" id="parsed-to-mapped" style="stroke:#475569;stroke-width:1;"/><polygon fill="#475569" points="370.7572,399.0469,374.7572,390.0469,370.7572,394.0469,366.7572,390.0469,370.7572,399.0469" style="stroke:#475569;stroke-width:1;stroke-linejoin:miter;stroke-miterlimit:10;"/><text fill="#475569" font-family="Helvetica" font-size="13" lengthAdjust="spacing" textLength="28.8818" x="371.7572" y="365.5438">map</text></g><!--link mapped to validated--><g class="link" data-entity-1="ent0003" data-entity-2="ent0004" data-link-type="dependency" data-source-line="19" id="lnk12"><path d="M370.7572,468.8269 C370.7572,492.5469 370.7572,518.7169 370.7572,540.2969" fill="none" id="mapped-to-validated" style="stroke:#475569;stroke-width:1;"/><polygon fill="#475569" points="370.7572,545.2969,374.7572,536.2969,370.7572,540.2969,366.7572,536.2969,370.7572,545.2969" style="stroke:#475569;stroke-width:1;stroke-linejoin:miter;stroke-miterlimit:10;"/><text fill="#475569" font-family="Helvetica" font-size="13" lengthAdjust="spacing" textLength="52.1968" x="371.7572" y="511.4338">validate</text></g><!--link validated to scored--><g class="link" data-entity-1="ent0004" data-entity-2="ent0005" data-link-type="dependency" data-source-line="20" id="lnk13"><path d="M370.7572,598.1869 C370.7572,620.4369 370.7572,647.5469 370.7572,669.7969" fill="none" id="validated-to-scored" style="stroke:#475569;stroke-width:1;"/><polygon fill="#475569" points="370.7572,674.7969,374.7572,665.7969,370.7572,669.7969,366.7572,665.7969,370.7572,674.7969" style="stroke:#475569;stroke-width:1;stroke-linejoin:miter;stroke-miterlimit:10;"/><text fill="#475569" font-family="Helvetica" font-size="13" lengthAdjust="spacing" textLength="35.2168" x="371.7572" y="641.0338">score</text></g><!--link scored to frozen--><g class="link" data-entity-1="ent0005" data-entity-2="ent0007" data-link-type="dependency" data-source-line="21" id="lnk14"><path d="M370.7572,727.8369 C370.7572,752.9469 370.7572,786.4169 370.7572,814.0769" fill="none" id="scored-to-frozen" style="stroke:#475569;stroke-width:1;"/><polygon fill="#475569" points="370.7572,819.0769,374.7572,810.0769,370.7572,814.0769,366.7572,810.0769,370.7572,819.0769" style="stroke:#475569;stroke-width:1;stroke-linejoin:miter;stroke-miterlimit:10;"/><text fill="#475569" font-family="Helvetica" font-size="13" lengthAdjust="spacing" textLength="106.647" x="429.6573" y="770.6238">freeze &#8212; always</text><text fill="#475569" font-family="Helvetica" font-size="13" lengthAdjust="spacing" textLength="222.4473" x="371.7572" y="785.7566">(&lt; 0.85 &#8658; requires_review = true)</text></g><!--link frozen to in_review--><g class="link" data-entity-1="ent0007" data-entity-2="ent0006" data-link-type="dependency" data-source-line="22" id="lnk15"><path d="M255.6972,867.7969 C225.1772,877.0369 195.5272,892.5569 176.7572,918.4469 C164.4972,935.3569 167.5372,946.7069 176.7572,965.4469 C182.2472,976.5969 186.7391,983.0982 195.9791,991.7082" fill="none" id="frozen-to-in_review" style="stroke:#475569;stroke-width:1;"/><polygon fill="#475569" points="199.6372,995.1169,195.7796,986.0549,195.9791,991.7082,190.3258,991.9078,199.6372,995.1169" style="stroke:#475569;stroke-width:1;stroke-linejoin:miter;stroke-miterlimit:10;"/><text fill="#475569" font-family="Helvetica" font-size="13" lengthAdjust="spacing" textLength="149.1763" x="177.7572" y="939.0138">requires_review = true</text><text fill="#475569" font-family="Helvetica" font-size="13" lengthAdjust="spacing" textLength="129.4604" x="187.6151" y="954.1466">(review queue, live)</text></g><!--link in_review to frozen--><g class="link" data-entity-1="ent0006" data-entity-2="ent0007" data-link-type="dependency" data-source-line="23" id="lnk16"><path d="M310.5772,995.1169 C318.2972,985.8269 325.8072,975.6869 331.7572,965.4469 C345.7572,941.3669 354.5786,916.2359 361.0186,893.6059" fill="none" id="in_review-to-frozen" style="stroke:#B45309;stroke-width:1;stroke-dasharray:7,7;"/><polygon fill="#B45309" points="362.3872,888.7969,356.0765,896.3583,361.0186,893.6059,363.771,898.548,362.3872,888.7969" style="stroke:#B45309;stroke-width:1;stroke-linejoin:miter;stroke-miterlimit:10;"/><text fill="#475569" font-family="Helvetica" font-size="13" lengthAdjust="spacing" textLength="75.2832" x="391.1817" y="931.5138">&#171;designed&#187;</text><text fill="#475569" font-family="Helvetica" font-size="13" lengthAdjust="spacing" textLength="150.0522" x="353.7972" y="946.6466">expert decision &#8594; NEW</text><text fill="#475569" font-family="Helvetica" font-size="13" lengthAdjust="spacing" textLength="121.8496" x="367.8985" y="961.7794">immutable version</text></g><!--link frozen to *end*--><g class="link" data-entity-1="ent0007" data-entity-2="ent0017" data-link-type="dependency" data-source-line="24" id="lnk18"><path d="M475.8472,888.8569 C489.6572,896.8369 502.5372,906.5869 512.7572,918.4469 C540.5072,950.6769 544.9119,999.459 545.5619,1021.819" fill="none" id="frozen-to-*end*" style="stroke:#475569;stroke-width:1;"/><polygon fill="#475569" points="545.7072,1026.8169,549.444,1017.7044,545.5619,1021.819,541.4474,1017.9369,545.7072,1026.8169" style="stroke:#475569;stroke-width:1;stroke-linejoin:miter;stroke-miterlimit:10;"/></g><g class="caption" data-source-line="6"><text fill="#64748B" font-family="Helvetica" font-size="14" lengthAdjust="spacing" textLength="894.0449" x="1" y="1102.6295">From raw source row to immutable frozen version &#8212; run_pipeline in services/ingestion/src/tarifhub_ingest/ingestion/pipeline.py</text></g><?plantuml-src TLHDJzj04BtlhvZ2WT3Y64eI84qjzL149Tf3K5iaWgBDUfoiwkoQtNNISEgflQF-Gdv9P-sr4rN25y_kp9kFzyO-WA-Vhy4wxX1IoUU6B-7vrr_8POPY8t84dO5M28uRcMLWK6YJWbiONSuNz4QuFeP25fXBXLrs06DKAPeX53bNhbpca6fXuv3RnbMfg4uJjLMw1KMoLrA9l4n3iKKvYwpRa5Dw9tFIKJkZMJ8IEjTck7zoSZhePycuRgdDDOehVpAAPmaJl71IAsWmWzvPxtoMN1gz1CFNO7Lf18BHQt0Qv79PEZwZCfdHZwXWXSPwkAV4b6hQ30fIWKMpaW9jBDKShQyIMoFYflTfVRtZRLagDasFZDNKxr4lUy1jrTDmjwlExVNDBSHmUVLf3EF-OGCekB6OLfZQ99ZR5FGcL1Eqv4KHWcgJWiYO-Yf-99xdC9CvDJM75SzBj1Fr1dH56S-1oob5GqOHq55QHI6sRO8mCYMhBj6UgCgtsgOyOxHbxa3_Q42Mv0g8sgJm51sQfLIIc18WjCfaYeeeEEvsJngWL5E3AuarK-q9zhCiEwlI1DNMqYreKnzAQT0sKU_1cH8dYg-vT7vW_5cWSLHQo4hZpaE99T8UhV1eeWBAbYRZr4UALiuLfkteTQcgar1r63wEwOBR1PMxkVeGlUqF9ahJ5f6anZCZEF4e1P5BGpfKZh6xr_SGHKcGFjSyPTxqLwsobS72qNjsvMJXuEztDMXijhtq8ItfbS72qNlQGJA3-8XXHTPyGslH6P4Mvtru_lFq0hM7BE1zggqwmnULw8HpnVjHHVmXsmAZk_rPhtzwV76K4g6OtkzsE1erYYJ9HFqlvVFl9_ZoyVj4RJ_ey2NlzaZ4CwOqgMdaVE7ydovu_KRHmw3zR_JE-lt1HTBc6pRoxeh-ZW1buPcs80pwFU6WQ9HGtFjvcKetpVKSl6WgZRJAjxy3kW3V4Vi7?></g></svg>